/* XPM */
static char * audio_xpm[] = {
"16 16 124 2",
"  	c None",
". 	c #000000",
"+ 	c #52493C",
"@ 	c #888178",
"# 	c #676459",
"$ 	c #544E43",
"% 	c #7E7768",
"& 	c #B7B0A6",
"* 	c #AEABA7",
"= 	c #8B867D",
"- 	c #7B7466",
"; 	c #665F52",
"> 	c #8F8678",
", 	c #CCC7BF",
"' 	c #BFBCB8",
") 	c #3E3629",
"! 	c #242014",
"~ 	c #373023",
"{ 	c #625743",
"] 	c #8F877A",
"^ 	c #D7D1CC",
"/ 	c #C3BFB7",
"( 	c #5B564A",
"_ 	c #292417",
": 	c #3F3728",
"< 	c #443C2C",
"[ 	c #534A39",
"} 	c #574A39",
"| 	c #9F9A91",
"1 	c #E0DDD7",
"2 	c #CFC9C2",
"3 	c #7C776B",
"4 	c #332D1F",
"5 	c #483C2D",
"6 	c #564C39",
"7 	c #574D3A",
"8 	c #5B503C",
"9 	c #71624C",
"0 	c #D2CEC9",
"a 	c #E7E4DC",
"b 	c #CCC3B9",
"c 	c #AFA496",
"d 	c #9B9185",
"e 	c #453C2E",
"f 	c #584A37",
"g 	c #766A51",
"h 	c #81725A",
"i 	c #84745B",
"j 	c #85755C",
"k 	c #72644D",
"l 	c #645740",
"m 	c #C3B6A5",
"n 	c #BEB09B",
"o 	c #BDAF9B",
"p 	c #CEC4B6",
"q 	c #938672",
"r 	c #5A5143",
"s 	c #A29F99",
"t 	c #91846C",
"u 	c #9C876B",
"v 	c #86745A",
"w 	c #7C7061",
"x 	c #B6A58B",
"y 	c #BCAB94",
"z 	c #B09C80",
"A 	c #D3CABA",
"B 	c #A0917B",
"C 	c #453C30",
"D 	c #807C7A",
"E 	c #83715F",
"F 	c #A69071",
"G 	c #8F7A5F",
"H 	c #847766",
"I 	c #7C6A50",
"J 	c #937E60",
"K 	c #947E61",
"L 	c #DCCFBE",
"M 	c #BCA78E",
"N 	c #79674E",
"O 	c #957F66",
"P 	c #AF9675",
"Q 	c #BBA17F",
"R 	c #A59378",
"S 	c #6D5D4C",
"T 	c #79674D",
"U 	c #867156",
"V 	c #DECCB9",
"W 	c #CEB89B",
"X 	c #867256",
"Y 	c #B9A58C",
"Z 	c #E2D6C7",
"` 	c #DDCEB7",
" .	c #DCC8B0",
"..	c #CEB797",
"+.	c #A69176",
"@.	c #5F5443",
"#.	c #9A8567",
"$.	c #B9A282",
"%.	c #B6A289",
"&.	c #978061",
"*.	c #C1A480",
"=.	c #E2CBAF",
"-.	c #EFE1CD",
";.	c #C9B59D",
">.	c #93846F",
",.	c #221A0E",
"'.	c #8B775C",
").	c #C8B193",
"!.	c #BAA78F",
"~.	c #A48A6A",
"{.	c #CEB18A",
"].	c #D3B58C",
"^.	c #B29E84",
"/.	c #453C2F",
"(.	c #665743",
"_.	c #B8A382",
":.	c #D3C2AE",
"<.	c #D8C9B6",
"[.	c #C0AF99",
"}.	c #756955",
"|.	c #9C8666",
"1.	c #998464",
"2.	c #5B4D3A",
"3.	c #030000",
"                . . .           ",
"            . + @ # $ .         ",
"          . % & * = - ; .       ",
"        . > , ' ) ! ~ { . .     ",
"      . ] ^ / ( _ : < [ } .     ",
"  . . | 1 2 3 4 5 6 7 8 9 .     ",
". 0 a b c d e f g h i j k l .   ",
". m n o p q r s t u u u v w .   ",
". x y z A B C D E F F F G H .   ",
". I J K L M N O P Q Q Q R S .   ",
"  . T U V W X Y Z `  ...+.@..   ",
"    . . #.$.%.&.*.=.-.;.>.,.    ",
"        . '.).!.~.{.].^./..     ",
"          . (._.:.<.[.}..       ",
"            . . |.1.2.3.        ",
"              . . . .           "};
