/* XPM */
static char * channel_xpm[] = {
"16 16 37 1",
" 	c None",
".	c #000000",
"+	c #C3BFB0",
"@	c #ECE7D7",
"#	c #FBF5E2",
"$	c #FAF3DB",
"%	c #E9E1C4",
"&	c #C0B79A",
"*	c #FCF9ED",
"=	c #FDFAF2",
"-	c #F9F2D6",
";	c #F7EECA",
">	c #C0B693",
",	c #DED9CA",
"'	c #FFFFFF",
")	c #FBF6E5",
"!	c #F9F2D8",
"~	c #F8EECC",
"{	c #E7DCB3",
"]	c #F6EABE",
"^	c #F8F0D1",
"/	c #F7ECC6",
"(	c #F5E8BA",
"_	c #DBD3B8",
":	c #F7EDC9",
"<	c #F6EABF",
"[	c #CBC095",
"}	c #CDC5A7",
"|	c #CBC097",
"1	c #C4B069",
"2	c #A19156",
"3	c #F6E9BD",
"4	c #FDFDFD",
"5	c #D8C274",
"6	c #EADFB7",
"7	c #FDFBF5",
"8	c #B2A05F",
"      .    .    ",
"                ",
"   .  ......  . ",
"     .+@#$%&.   ",
"    .+*=*#-;>.  ",
"    .,='=)!~{.  ",
"  . .#*=*#-;]. .",
"    .$#)#$^/(.  ",
"    ._-!-^:<[.  ",
"     .}~;/<|.   ",
"      ..12..    ",
"      .3435.    ",
"       .12.     ",
"      .6768.    ",
"       ....     ",
"        ..      "};
