/* XPM */
static char * plug_xpm[] = {
"14 12 35 1",
" 	c None",
".	c #000000",
"+	c #989389",
"@	c #807D74",
"#	c #43423C",
"$	c #B7B3AA",
"%	c #C4C2BD",
"&	c #EAE8E3",
"*	c #E2E1DD",
"=	c #F0EFEC",
"-	c #AAA7A0",
";	c #C5D2C8",
">	c #E9EEEA",
",	c #F2F0ED",
"'	c #EBEAE6",
")	c #8A857B",
"!	c #ECEBE8",
"~	c #78756B",
"{	c #BEBBB5",
"]	c #B3B1AA",
"^	c #7D786E",
"/	c #E1DFDB",
"(	c #010101",
"_	c #8C8981",
":	c #A6A29B",
"<	c #726D63",
"[	c #CECAC3",
"}	c #0F0F0D",
"|	c #F0F3F1",
"1	c #272622",
"2	c #8B877E",
"3	c #706C62",
"4	c #B1ADA4",
"5	c #6C685E",
"6	c #646056",
"       ..     ",
"     ..+@.    ",
"    #$%&@.... ",
"   .*=-&@.;;>.",
"...@*=-&@.... ",
"&&&&,')!@.    ",
"@@~~{]^/~.    ",
"..(~_:<[~.... ",
"   }_:<[~.;;|.",
"    12345.... ",
"     }}+6.    ",
"       }}     "};
