/* XPM */
static char * scene_xpm[] = {
"16 16 59 1",
" 	c None",
".	c #000000",
"+	c #FEFEFE",
"@	c #FDFDFD",
"#	c #E0E0E0",
"$	c #C1C1C1",
"%	c #C7C7C7",
"&	c #A2A2A2",
"*	c #F1F1F1",
"=	c #C3C3C3",
"-	c #FBFBFB",
";	c #A8A8A8",
">	c #9B9B9B",
",	c #AAAAAA",
"'	c #A1A1A1",
")	c #A6A6A6",
"!	c #ADADAD",
"~	c #767676",
"{	c #5D5D5D",
"]	c #404040",
"^	c #969696",
"/	c #F0F0F0",
"(	c #E2E2E2",
"_	c #858585",
":	c #4B4B49",
"<	c #161616",
"[	c #EFEFEF",
"}	c #EEEEEE",
"|	c #C5C5C5",
"1	c #ECECEC",
"2	c #C4C4C4",
"3	c #A0A0A0",
"4	c #ACACAC",
"5	c #9E9E9E",
"6	c #989898",
"7	c #9A9A9A",
"8	c #AFAFAF",
"9	c #EBEBEB",
"0	c #EAEAEA",
"a	c #E8E8E8",
"b	c #C0C0C0",
"c	c #9D9D9D",
"d	c #E9E9E9",
"e	c #D8D8D8",
"f	c #E7E7E7",
"g	c #BFBFBF",
"h	c #949494",
"i	c #E6E6E6",
"j	c #999999",
"k	c #939393",
"l	c #AEAEAE",
"m	c #E5E5E5",
"n	c #BEBEBE",
"o	c #E4E4E4",
"p	c #BDBDBD",
"q	c #E3E3E3",
"r	c #BBBBBB",
"s	c #C2C2C2",
"t	c #BCBCBC",
"  .........     ",
" .++++++@#$.    ",
" .+%&%***=-;.   ",
" .+>,&*')!~{].  ",
" .+%^%**/(_:<.  ",
" .+*[[[[[[}}|.  ",
" .+|>|}}}}}12.  ",
" .@343}56789=.  ",
" .@26=199000$.  ",
" .@9aaaaaaaab.  ",
" .@$cbdeaaffg.  ",
" .@^,hijhklmn.  ",
" .@g>niimmoop.  ",
" .@immmooqqqr.  ",
" .spppttrrrr3.  ",
"  ...........   "};
