/* XPM */
static char * sound_xpm[] = {
"13 13 46 1",
" 	c None",
".	c #92887F",
"+	c #8F857B",
"@	c #1C1917",
"#	c #7E7063",
"$	c #A6998D",
"%	c #AAA5A1",
"&	c #636362",
"*	c #7A6D61",
"=	c #DACEC3",
"-	c #B0A9A3",
";	c #B0ADAA",
">	c #D0D0D0",
",	c #000000",
"'	c #6E645C",
")	c #8D837A",
"!	c #DCD0C6",
"~	c #F2EAE2",
"{	c #A69B92",
"]	c #5F5C5A",
"^	c #DBDBDB",
"/	c #5D5853",
"(	c #C2B9B2",
"_	c #D9CFC7",
":	c #E0CFC0",
"<	c #A4968A",
"[	c #211F1C",
"}	c #CFCFCF",
"|	c #1A1816",
"1	c #2D2925",
"2	c #8A7E73",
"3	c #C2B1A2",
"4	c #9A8D82",
"5	c #615E5B",
"6	c #1E1B19",
"7	c #897C72",
"8	c #8D8177",
"9	c #AFACAA",
"0	c #CBCBCB",
"a	c #211E1B",
"b	c #5C544C",
"c	c #8E8C89",
"d	c #616161",
"e	c #2A2623",
"f	c #3B3937",
"g	c #0C0C0C",
"             ",
"             ",
"      .+@    ",
"     #$%&    ",
"    *=-;>,   ",
"  ')!~{]^,   ",
"  /(_:<[}, , ",
"  |12345^,   ",
"    67890,   ",
"     abcd    ",
"      efg    ",
"             ",
"             "};
