/* XPM */
static char * sync_xpm[] = {
"16 16 121 2",
"  	c None",
". 	c #1F0A00",
"+ 	c #000000",
"@ 	c #2C0F02",
"# 	c #E3723B",
"$ 	c #DF6428",
"% 	c #D95414",
"& 	c #D14E11",
"* 	c #CA4B0F",
"= 	c #C1460F",
"- 	c #BC5726",
"; 	c #E66E31",
"> 	c #E75D17",
", 	c #E55913",
"' 	c #E05713",
") 	c #D75112",
"! 	c #CE4D10",
"~ 	c #C4480F",
"{ 	c #BC440E",
"] 	c #97350B",
"^ 	c #E36B2F",
"/ 	c #E15914",
"( 	c #97441B",
"_ 	c #A14619",
": 	c #DC5612",
"< 	c #C44B10",
"[ 	c #863A16",
"} 	c #984722",
"| 	c #BB4512",
"1 	c #B43F0E",
"2 	c #270E04",
"3 	c #DC6C37",
"4 	c #E15B19",
"5 	c #873D18",
"6 	c #CCB0A1",
"7 	c #D5B7A7",
"8 	c #C36231",
"9 	c #893F1B",
"0 	c #BFA091",
"a 	c #DFC1B4",
"b 	c #C76B42",
"c 	c #AC3B0D",
"d 	c #1B0700",
"e 	c #D6571C",
"f 	c #DC5512",
"g 	c #9F4518",
"h 	c #D4B19F",
"i 	c #FFFFFF",
"j 	c #EEDBD3",
"k 	c #D2C2BB",
"l 	c #F7F7F7",
"m 	c #ECC8B8",
"n 	c #CE764F",
"o 	c #B33F0D",
"p 	c #AB3B0D",
"q 	c #CF4D10",
"r 	c #D95312",
"s 	c #D06028",
"t 	c #DBC9C1",
"u 	c #F5DED3",
"v 	c #D37D57",
"w 	c #C05425",
"x 	c #B13D0D",
"y 	c #A9390C",
"z 	c #C8490F",
"A 	c #CD4C10",
"B 	c #BB460F",
"C 	c #93441D",
"D 	c #D9C9C1",
"E 	c #F6E3DB",
"F 	c #CA6A41",
"G 	c #B64110",
"H 	c #AD3B0D",
"I 	c #A5380C",
"J 	c #C6480F",
"K 	c #823816",
"L 	c #D0B2A3",
"M 	c #FBFBFB",
"N 	c #F4DDD3",
"O 	c #EBCCBF",
"P 	c #BE5F38",
"Q 	c #A9390D",
"R 	c #9A330A",
"S 	c #2A170D",
"T 	c #BA4816",
"U 	c #BC440F",
"V 	c #7E391A",
"W 	c #D2B4A6",
"X 	c #EAC4B4",
"Y 	c #CC6D43",
"Z 	c #C96A41",
"` 	c #E7C2B1",
" .	c #E6C4B7",
"..	c #BC6441",
"+.	c #9F350B",
"@.	c #812A08",
"#.	c #190700",
"$.	c #B84919",
"%.	c #B4400F",
"&.	c #BA5D35",
"*.	c #C46238",
"=.	c #B84412",
"-.	c #B7491B",
";.	c #BE603A",
">.	c #BB6340",
",.	c #AA441B",
"'.	c #8F2E09",
").	c #923B18",
"!.	c #B34A1E",
"~.	c #AF3E0F",
"{.	c #AE3C0D",
"].	c #A93A0D",
"^.	c #A6380C",
"/.	c #9E350B",
"(.	c #8A2D09",
"_.	c #5F1D05",
":.	c #A6390E",
"<.	c #A2360B",
"[.	c #93310A",
"}.	c #772607",
"|.	c #190600",
"                                ",
"          . + + + + @           ",
"      + + # $ % & * = + +       ",
"    + - ; > , ' ) ! ~ { ] +     ",
"    + ^ / ( _ : < [ } | 1 +     ",
"  2 3 4 5 6 7 8 9 0 a b 1 c d   ",
"  + e f g h i j k l m n o p +   ",
"  + q ) r s t i i u v w x y +   ",
"  + z A B C D i i E F G H I +   ",
"  + = J K L M N N i O P Q R +   ",
"  S T U V W X Y Z `  ...+.@.#.  ",
"    + $.%.&.*.=.-.;.>.,.'.+     ",
"    + ).!.~.{.H ].^./.(._.+     ",
"      + + :.^.I <.[.}.+ +       ",
"          . + + + + |.          ",
"                                "};
